<?xml version="1.0" encoding="UTF-8"?><svg id="Layer_1" xmlns="http://www.w3.org/2000/svg" viewBox="0 0 115.74 94.32"><defs><style>.cls-1{stroke:#fff;stroke-miterlimit:10;stroke-width:.5px;}.cls-2{fill:none;stroke:#000;}</style></defs><g><circle class="cls-2" cx="86.7" cy="25.75" r="5.26"/><ellipse class="cls-2" cx="86.7" cy="25.75" rx="5" ry="1.87" transform="translate(23.38 90.32) rotate(-62.1)"/><rect class="cls-2" x="81.44" y="25.75" width="10.53" height="0" transform="translate(22.12 -37.58) rotate(27.9)"/></g><path d="M114.42,62.5c-.46,.16-1.03,.32-1.71,.46s-1.3,.22-1.86,.22c-1.69,0-3.05-.5-4.08-1.51s-1.54-2.75-1.54-5.22V24.36h10.01v-7.13h-10.01V4.49h-9.62v12.74h-8.4v1.44c3.18,.24,5.75,2.61,6.31,5.69h2.09V56.45c0,5.05,1.16,8.75,3.47,11.11s5.42,3.54,9.33,3.54c1.37,0,2.75-.19,4.15-.56,1.4-.38,2.46-.85,3.17-1.44l-1.32-6.59Z"/><g><path d="M11.29,89.12c0-.8-.26-1.45-.79-1.96s-1.46-.97-2.81-1.37c-1.92-.57-3.41-1.32-4.45-2.25-1.04-.93-1.57-2.14-1.57-3.63s.57-2.82,1.72-3.82c1.15-1,2.62-1.5,4.42-1.5,1.93,0,3.48,.56,4.63,1.67,1.16,1.11,1.72,2.49,1.68,4.12l-.02,.08h-2.87c0-1.01-.31-1.81-.94-2.41-.63-.6-1.46-.9-2.5-.9s-1.78,.25-2.33,.76c-.54,.51-.82,1.17-.82,1.98,0,.74,.3,1.35,.9,1.83,.6,.48,1.59,.93,2.97,1.36,1.87,.56,3.3,1.33,4.28,2.3,.98,.97,1.47,2.21,1.47,3.72,0,1.59-.58,2.86-1.74,3.81-1.16,.95-2.69,1.42-4.58,1.42s-3.4-.52-4.75-1.56c-1.35-1.04-2.01-2.5-1.96-4.39l.02-.08h2.87c0,1.15,.37,2.02,1.11,2.6,.74,.58,1.64,.88,2.71,.88s1.88-.24,2.46-.72c.58-.48,.88-1.13,.88-1.94Z"/><path d="M25.1,94.32c-1.94,0-3.46-.66-4.55-1.97-1.09-1.31-1.64-3.02-1.64-5.11v-.53c0-2.09,.55-3.82,1.64-5.17,1.09-1.36,2.5-2.03,4.23-2.02,1.78,0,3.13,.59,4.05,1.77,.92,1.18,1.38,2.76,1.38,4.74v1.73h-8.21l-.02,.07c.03,1.17,.32,2.12,.86,2.85,.54,.73,1.35,1.09,2.44,1.09,.81,0,1.51-.11,2.1-.32s1.14-.51,1.65-.91l.97,2.1c-.51,.47-1.18,.87-2.01,1.2-.83,.33-1.8,.49-2.88,.49Zm-.32-12.23c-.78,0-1.4,.3-1.87,.9-.47,.6-.76,1.39-.87,2.35l.02,.07h5.19v-.25c0-.91-.2-1.65-.6-2.22-.4-.57-1.02-.85-1.88-.85Z"/><path d="M41.68,82.67l-1.28-.05c-.58,0-1.07,.13-1.45,.39s-.69,.64-.9,1.12v9.91h-2.98v-14.26h2.73l.2,2.07c.34-.73,.77-1.3,1.29-1.71s1.14-.62,1.82-.62c.18,0,.35,.02,.5,.05,.16,.03,.3,.07,.43,.11l-.36,2.99Z"/><path d="M51.17,89.22l.22,1.16h.07l.23-1.16,2.64-9.44h3.08l-4.71,14.26h-2.59l-4.74-14.26h3.08l2.71,9.44Z"/><path d="M64.91,76.29h-2.98v-2.81h2.98v2.81Zm0,17.76h-2.98v-14.26h2.98v14.26Z"/><path d="M76.1,91.76c.68,0,1.25-.23,1.72-.69,.47-.46,.71-1.04,.71-1.74h2.7l.02,.08c.03,1.34-.46,2.49-1.48,3.45-1.02,.97-2.24,1.45-3.68,1.45-1.92,0-3.39-.68-4.43-2.04-1.04-1.36-1.56-3.07-1.56-5.13v-.46c0-2.06,.52-3.77,1.56-5.13,1.04-1.36,2.51-2.04,4.42-2.04,1.55,0,2.8,.5,3.77,1.5,.97,1,1.43,2.27,1.4,3.8l-.02,.08h-2.7c0-.78-.22-1.45-.67-1.99-.45-.54-1.04-.82-1.77-.82-1.06,0-1.83,.44-2.3,1.32-.47,.88-.7,1.98-.7,3.28v.46c0,1.33,.23,2.43,.69,3.3,.46,.88,1.23,1.31,2.31,1.31Z"/><path d="M91.84,94.32c-1.94,0-3.46-.66-4.55-1.97-1.09-1.31-1.64-3.02-1.64-5.11v-.53c0-2.09,.55-3.82,1.64-5.17,1.09-1.36,2.5-2.03,4.23-2.02,1.78,0,3.13,.59,4.05,1.77,.92,1.18,1.38,2.76,1.38,4.74v1.73h-8.21l-.03,.07c.03,1.17,.32,2.12,.86,2.85s1.35,1.09,2.44,1.09c.81,0,1.51-.11,2.11-.32,.59-.21,1.14-.51,1.65-.91l.97,2.1c-.51,.47-1.18,.87-2.01,1.2s-1.8,.49-2.88,.49Zm-.32-12.23c-.78,0-1.4,.3-1.87,.9-.47,.6-.76,1.39-.87,2.35l.02,.07h5.19v-.25c0-.91-.2-1.65-.59-2.22-.4-.57-1.03-.85-1.88-.85Z"/><path d="M109.26,90.14c0-.49-.19-.9-.58-1.22-.39-.32-1.12-.61-2.2-.86-1.56-.34-2.76-.85-3.58-1.52-.83-.67-1.24-1.56-1.24-2.69,0-1.19,.47-2.22,1.41-3.06,.94-.85,2.18-1.27,3.72-1.27s2.87,.44,3.84,1.31c.97,.88,1.43,1.93,1.39,3.16l-.03,.08h-2.86c0-.58-.21-1.08-.64-1.51-.43-.43-.99-.64-1.71-.64s-1.27,.18-1.65,.53c-.38,.35-.56,.78-.56,1.29,0,.48,.18,.87,.53,1.16,.35,.29,1.08,.55,2.17,.78,1.63,.35,2.86,.87,3.68,1.55,.83,.68,1.24,1.59,1.24,2.74,0,1.28-.49,2.33-1.48,3.14-.99,.81-2.29,1.22-3.9,1.22-1.73,0-3.09-.47-4.09-1.42-1-.95-1.47-2.04-1.42-3.27l.02-.08h2.77c.03,.83,.31,1.43,.83,1.81s1.16,.57,1.92,.57,1.35-.16,1.77-.49c.42-.33,.63-.76,.63-1.29Z"/></g><polygon points="33.89 0 25.63 0 0 71.09 9.81 71.09 16.16 52.78 18.95 44.73 29.54 14.21 29.83 14.21 40.19 44.73 42.92 52.78 49.17 71.09 58.98 71.09 33.89 0"/><g><polygon class="cls-1" points="69.17 67.33 73.93 35.55 68.97 35.55 63.65 71.09 73.93 71.09 74.39 67.33 69.17 67.33"/><polygon class="cls-1" points="55.03 67.33 59.79 35.55 54.84 35.55 49.52 71.09 59.8 71.09 60.25 67.33 55.03 67.33"/></g><g><g><path d="M26.88,48.75l-.97,.98-6-5.01,6-5.01,.97,.99-4.87,4,4.87,4.05Z"/><path d="M32.25,40.71l.96-.99,6,5.01-6,5.01-.96-.98,4.87-4.01-4.87-4.04Z"/></g><path d="M27.11,51.08l3.57-12.72h1.21l-3.56,12.72h-1.22Z"/></g><path d="M88.88,35.52v35.57h-4.35V35.52h4.35Z"/></svg>